<svg xmlns="http://www.w3.org/2000/svg" xmlns:xlink="http://www.w3.org/1999/xlink" preserveAspectRatio="xMidYMid" width="200" height="200" viewBox="0 0 200 200">
  <defs>
    <style>
      .cls-1 {
        fill: #fff;
        fill-rule: evenodd;
      }
    </style>
  </defs>
  <path d="M163.333,84.447 C163.333,84.447 163.333,84.412 163.333,84.377 C163.333,84.343 163.333,84.302 163.333,84.236 C163.295,83.589 163.148,82.948 162.891,82.339 L162.854,82.304 C162.559,81.660 162.155,81.089 161.640,80.627 C161.640,80.627 161.602,80.627 161.602,80.589 L105.470,29.410 C103.335,27.444 99.948,27.482 97.851,29.476 L41.719,82.590 C41.682,82.625 41.682,82.625 41.682,82.625 C41.167,83.124 40.762,83.696 40.467,84.343 C40.467,84.377 40.467,84.377 40.467,84.377 C40.210,84.984 40.063,85.628 40.063,86.306 C40.063,86.341 40.026,86.378 40.026,86.410 C40.026,86.410 40.026,86.410 40.026,86.444 L40.026,157.488 C40.026,164.376 45.805,169.986 52.908,169.986 L83.422,169.986 C86.477,169.986 88.943,167.593 88.943,164.628 C88.943,164.452 88.906,164.235 88.906,164.056 C88.906,163.842 88.943,163.666 88.943,163.453 L88.943,125.341 C88.943,124.628 90.085,123.557 91.888,123.557 L110.881,123.557 C112.684,123.557 113.789,124.628 113.789,125.341 L113.789,163.453 C113.789,163.666 113.862,163.842 113.862,164.056 C113.862,164.235 113.789,164.452 113.789,164.628 C113.789,167.593 116.292,169.986 119.310,169.986 L151.076,169.986 C158.179,169.986 163.958,164.376 163.958,157.447 L163.333,84.447 ZM151.076,159.272 L124.832,159.272 L124.832,125.341 C124.832,118.450 118.574,112.843 110.881,112.843 L91.888,112.843 C84.195,112.843 77.901,118.450 77.901,125.341 L77.901,159.272 L52.908,159.272 C51.915,159.272 51.068,158.449 51.068,157.488 L51.068,88.697 L101.753,40.731 L152.327,86.840 L152.916,157.488 C152.916,158.449 152.069,159.272 151.076,159.272 Z" class="cls-1"/>
</svg>